<mxfile host="app.diagrams.net" modified="2023-09-04T16:35:11.054Z" agent="Mozilla/5.0 (X11; Ubuntu; Linux x86_64; rv:109.0) Gecko/20100101 Firefox/116.0" version="21.7.2" etag="alT8OfVTavo3wZ5GRm16" type="github">
  <diagram name="Page-1" id="wF1uMGhLeyXnpZ27aQJU">
    <mxGraphModel>
      <root>
        <mxCell id="0" />
        <mxCell id="1" parent="0" />
      </root>
    </mxGraphModel>
  </diagram>
</mxfile>
